HIERARCHY
ROOT Hips
{
	OFFSET 0.000000 0.000000 0.000000
	CHANNELS 6 Xposition Yposition Zposition Zrotation Yrotation Xrotation 
	JOINT LHipJoint
	{
		OFFSET 0.000000 0.000000 0.000000
		CHANNELS 3 Zrotation Yrotation Xrotation
		JOINT LeftUpLeg
		{
			OFFSET 1.363060 -1.794630 0.839290
			CHANNELS 3 Zrotation Yrotation Xrotation
			JOINT LeftLeg
			{
				OFFSET 2.448110 -6.726130 0.000000
				CHANNELS 3 Zrotation Yrotation Xrotation
				JOINT LeftFoot
				{
					OFFSET 2.562200 -7.039590 0.000000
					CHANNELS 3 Zrotation Yrotation Xrotation
					JOINT LeftToeBase
					{
						OFFSET 0.157640 -0.433110 2.322550
						CHANNELS 3 Zrotation Yrotation Xrotation
						End Site
						{
							OFFSET 0.000000 0.000000 0.000000
						}
					}
				}
			}
		}
	}
	JOINT RHipJoint
	{
		OFFSET 0.000000 0.000000 0.000000
		CHANNELS 3 Zrotation Yrotation Xrotation
		JOINT RightUpLeg
		{
			OFFSET -1.305520 -1.794630 0.839290
			CHANNELS 3 Zrotation Yrotation Xrotation
			JOINT RightLeg
			{
				OFFSET -2.542530 -6.985550 0.000000
				CHANNELS 3 Zrotation Yrotation Xrotation
				JOINT RightFoot
				{
					OFFSET -2.568260 -7.056230 0.000000
					CHANNELS 3 Zrotation Yrotation Xrotation
					JOINT RightToeBase
					{
						OFFSET -0.164730 -0.452590 2.363150
						CHANNELS 3 Zrotation Yrotation Xrotation
						End Site
						{
							OFFSET 0.000000 0.000000 0.000000
						}
					}
				}
			}
		}
	}
}
MOTION
Frames: 14
Frame Time: 0.008333
0.118555 16.790103 0.265001 4.230438 72.234430 22.328514 -9.013266 -0.944444 1.283810 -4.319060 -3.294218 -42.263862 -1.700171 0.718541 20.354178 0.300494 1.487512 7.925678 0.680100 -0.000001 -40.793100 10.667454 -2.473131 -1.563788 5.217590 1.903893 -1.761677 1.356968 -2.491488 29.844680 0.883590 10.080460 3.609189 1.673399 0.000000 -73.079600
0.282910 16.813022 0.295784 4.766510 71.712681 22.797360 -8.942376 -0.878573 1.210431 -4.694010 -3.313367 -41.736220 -1.707992 0.715151 21.106029 0.402102 2.218052 6.572646 0.825400 -0.000000 -40.936200 10.919355 -2.483186 -1.642741 4.582463 1.336174 -3.152058 1.038940 -2.733269 32.672794 0.764247 9.782135 5.638484 1.980100 -0.000000 -73.301300
0.444767 16.836850 0.324079 5.114537 71.144468 23.072986 -8.880469 -0.810288 1.141195 -5.029453 -3.295155 -41.114588 -1.717098 0.700409 21.689045 0.508122 2.935168 5.269651 0.935600 0.000000 -41.177700 11.155625 -2.463871 -1.723419 4.014840 0.747348 -4.609177 0.720329 -2.944928 35.537390 0.598875 9.132723 7.560458 2.182700 -0.000001 -73.058500
0.604371 16.861256 0.349838 5.276931 70.532475 23.159743 -8.831239 -0.740394 1.075661 -5.320561 -3.228229 -40.417690 -1.725298 0.677655 22.116356 0.614397 3.618186 4.074176 1.012400 -0.000000 -41.434100 11.370424 -2.415554 -1.803510 3.531682 0.158933 -6.113002 0.409190 -3.127187 38.408158 0.387881 8.051949 9.289799 2.213100 0.000001 -72.420600
0.761878 16.886069 0.373208 5.272886 69.882376 23.077946 -8.796680 -0.669762 1.012370 -5.568323 -3.102750 -39.665389 -1.731373 0.649862 22.405654 0.716796 4.252725 3.024411 1.062000 -0.000000 -41.643399 11.560810 -2.339977 -1.881794 3.141420 -0.414857 -7.648483 0.112481 -3.283202 41.260566 0.133066 6.494712 10.744801 2.015500 -0.000001 -71.354500
0.917455 16.911256 0.394456 5.123322 69.201382 22.849650 -8.778101 -0.599204 0.949334 -5.775081 -2.909744 -38.876748 -1.734733 0.619713 22.578303 0.811817 4.829068 2.137970 1.091600 -0.000000 -41.770200 11.724785 -2.240235 -1.957150 2.850764 -0.962291 -9.200742 -0.164284 -3.416940 44.066464 -0.163389 4.457206 11.862066 1.562999 -0.000000 -69.898999
1.071097 16.936875 0.413965 4.860251 68.498480 22.507045 -8.774984 -0.529476 0.884237 -5.947110 -2.644597 -38.068279 -1.735773 0.589048 22.655302 0.897241 5.343934 1.413046 1.108300 -0.000000 -41.804100 11.862630 -2.120222 -2.029157 2.658219 -1.477175 -10.758569 -0.416507 -3.533293 46.800966 -0.497144 1.992352 12.586505 0.868700 -0.000000 -67.951101
1.222807 16.963060 0.432141 4.510710 67.782908 22.077224 -8.786435 -0.461211 0.814939 -6.089255 -2.305583 -37.252646 -1.735263 0.559257 22.657429 0.972084 5.797227 0.831339 1.117000 -0.000000 -41.755000 11.974815 -1.984876 -2.097283 2.561379 -1.954235 -12.310198 -0.641061 -3.636815 49.434055 -0.861018 -0.795007 12.892731 -0.010800 0.000001 -65.530000
1.372508 16.989956 0.449504 4.107830 67.063510 21.593426 -8.809748 -0.394671 0.739539 -6.210080 -1.897518 -36.437556 -1.734589 0.530754 22.600266 1.036818 6.194754 0.364783 1.120700 0.000000 -41.647000 12.063768 -1.839676 -2.161735 2.549687 -2.392174 -13.847909 -0.836143 -3.732460 51.941098 -1.242384 -3.749400 12.770395 -0.981600 -0.000000 -62.507700
1.520072 17.017670 0.466426 3.671413 66.348150 21.075157 -8.843008 -0.330057 0.656969 -6.312422 -1.427048 -35.627197 -1.734865 0.503922 22.497750 1.092516 6.541839 -0.020445 1.119900 -0.000001 -41.510600 12.130846 -1.690580 -2.222191 2.616152 -2.787985 -15.361570 -1.002088 -3.823403 54.291184 -1.624692 -6.692121 12.258306 -1.933500 0.000000 -59.021101
1.665396 17.046306 0.483328 3.219376 65.643933 20.540295 -8.883874 -0.267223 0.566950 -6.398995 -0.905518 -34.820881 -1.737036 0.478648 22.358570 1.140813 6.846132 -0.356191 1.114100 -0.000000 -41.378300 12.178127 -1.543173 -2.278329 2.751149 -3.139633 -16.843560 -1.140694 -3.911734 56.459041 -1.987895 -9.440947 11.423676 -2.762800 0.000000 -55.204500
1.808404 17.075836 0.500541 2.765251 64.956497 20.002526 -8.930021 -0.205980 0.469830 -6.470719 -0.347034 -34.015352 -1.741755 0.454622 22.187100 1.183254 7.114440 -0.668647 1.102301 0.000000 -41.279800 12.207771 -1.401715 -2.329916 2.944679 -3.445242 -18.287255 -1.254690 -3.997848 58.423132 -2.311518 -11.836597 10.362544 -3.394700 -0.000000 -51.281400
1.949070 17.106158 0.518310 2.315947 64.290001 19.468542 -8.979777 -0.146016 0.366717 -6.526301 0.233183 -33.204964 -1.749077 0.431561 21.984863 1.221028 7.352081 -0.974832 1.083700 -0.000000 -41.237299 12.221620 -1.269108 -2.376546 3.188367 -3.703235 -19.686540 -1.346818 -4.080687 60.167313 -2.577249 -13.758560 9.185711 -3.795500 0.000000 -47.510500
2.087403 17.137071 0.536873 1.876610 63.648583 18.943327 -9.032024 -0.086879 0.259467 -6.563598 0.819813 -32.383512 -1.758643 0.409198 21.750983 1.254698 7.561977 -1.281068 1.058400 0.000000 -41.265299 12.221436 -1.147056 -2.417525 3.474000 -3.913095 -21.036068 -1.419204 -4.158441 61.681369 -2.770844 -15.130402 8.000772 -3.970501 -0.000000 -44.136300
